#!OML:ASF F:\VICON\USERDATA\INSTALL\rory3\rory3.ASF
:FULLY-SPECIFIED
:DEGREES
1598
root 0.0873299 17.8449 -4.99385 3.95498 33.0524 363.006
lowerback 11.981 1.37117 -1.61619
upperback 1.3614 1.67633 0.905931
thorax -5.36379 0.87576 1.58537
lowerneck -17.2961 -1.60968 -11.4685
upperneck 38.7464 0.444191 4.8544
head 17.0293 -0.641754 4.38806
rclavicle -1.0635e-013 1.74931e-014
rhumerus -34.4068 -11.2163 -78.0112
rradius 37.8091
rwrist 9.59892
rhand -13.1658 10.085
rfingers 7.12502
rthumb 12.9334 -19.4942
lclavicle -1.0635e-013 1.74931e-014
lhumerus -27.3616 -1.66197 81.0734
lradius 38.0461
lwrist 2.11771
lhand -22.1491 25.2382
lfingers 7.12502
lthumb 4.26476 55.1752
rfemur -12.6991 -9.31829 14.7672
rtibia 41.8526
rfoot -24.2035 4.76469
rtoes -13.9832
lfemur -12.113 -2.51274 -18.99
ltibia 23.3023
lfoot -9.95381 -9.67366
ltoes -4.933
1599
root 0.10516 17.8315 -5.04813 4.04835 33.3133 363.078
lowerback 11.8913 1.381 -1.72627
upperback 1.35272 1.67493 0.8835
thorax -5.32545 0.876978 1.62585
lowerneck -17.4364 -1.64236 -11.5136
upperneck 38.7781 0.451615 4.81509
head 17.0837 -0.652161 4.38414
rclavicle -6.52014e-014 -8.74653e-015
rhumerus -34.4598 -10.8564 -78.2435
rradius 37.8916
rwrist 9.82452
rhand -13.5483 10.5
rfingers 7.12502
rthumb 12.5646 -19.1022
lclavicle -6.52014e-014 -8.74653e-015
lhumerus -27.1759 -1.4181 80.846
lradius 38.258
lwrist 2.74088
lhand -21.8019 24.4233
lfingers 7.12502
lthumb 4.60004 54.3534
rfemur -12.6942 -9.79534 15.443
rtibia 42.1811
rfoot -24.6785 5.78851
rtoes -15.5247
lfemur -12.5363 -2.44853 -19.168
ltibia 23.6865
lfoot -10.0665 -10.0997
ltoes -4.26983
1600
root 0.122118 17.8254 -5.10183 4.09347 33.6103 363.095
lowerback 11.8486 1.3773 -1.779
upperback 1.33013 1.66393 0.886679
thorax -5.32658 0.872903 1.66134
lowerneck -17.5493 -1.66484 -11.5206
upperneck 38.8204 0.486184 4.70745
head 17.1346 -0.655488 4.34703
rclavicle 1.09133e-013 -7.15625e-015
rhumerus -34.618 -10.4296 -78.4174
rradius 38.1098
rwrist 10.2934
rhand -13.812 10.6615
rfingers 7.12502
rthumb 12.3103 -18.9561
lclavicle 1.09133e-013 -7.15625e-015
lhumerus -27.0517 -1.21016 80.6683
lradius 38.4737
lwrist 3.25326
lhand -21.6303 23.624
lfingers 7.12502
lthumb 4.7658 53.5504
rfemur -12.6641 -10.2213 16.1509
rtibia 42.4258
rfoot -25.0419 7.01059
rtoes -15.2997
lfemur -12.9237 -2.39346 -19.2895
ltibia 24.0394
lfoot -10.1417 -10.5937
ltoes -3.45113
1601
root 0.137009 17.8164 -5.15173 4.09917 33.8773 363.108
lowerback 11.8169 1.39732 -1.82786
upperback 1.31164 1.68503 0.894516
thorax -5.33102 0.884598 1.69407
lowerneck -17.6027 -1.68762 -11.5045
upperneck 38.8681 0.507348 4.59401
head 17.175 -0.66116 4.29994
rclavicle -8.94531e-015 -1.98785e-014
rhumerus -34.8213 -10.2827 -78.4628
rradius 38.4667
rwrist 10.8425
rhand -14.0772 10.544
rfingers 7.12502
rthumb 12.0546 -19.0888
lclavicle -8.94531e-015 -1.98785e-014
lhumerus -26.9772 -1.20419 80.5876
lradius 38.7668
lwrist 3.53939
lhand -21.7572 23.6626
lfingers 7.12502
lthumb 4.64322 53.5917
rfemur -12.5312 -10.5872 16.8407
rtibia 42.5968
rfoot -25.4092 8.13595
rtoes -15.4378
lfemur -13.2238 -2.22606 -19.4038
ltibia 24.3129
lfoot -10.2434 -11.1545
ltoes -2.8891
1602
root 0.153294 17.8028 -5.2029 4.13155 34.0453 363.164
lowerback 11.7831 1.45286 -1.7913
upperback 1.27585 1.7589 0.812285
thorax -5.34945 0.919568 1.57534
lowerneck -17.5194 -1.70017 -11.425
upperneck 38.8781 0.472282 4.54942
head 17.1635 -0.667912 4.25848
rclavicle 2.38542e-014 -8.74653e-015
rhumerus -34.9989 -10.3701 -78.5334
rradius 38.7248
rwrist 11.0074
rhand -14.3535 10.4915
rfingers 7.12502
rthumb 11.7882 -19.1568
lclavicle 2.38542e-014 -8.74653e-015
lhumerus -27.0082 -1.39647 80.4138
lradius 39.1282
lwrist 3.79201
lhand -21.8404 23.8757
lfingers 7.12502
lthumb 4.56286 53.8066
rfemur -12.3416 -10.8961 17.4573
rtibia 42.6712
rfoot -25.7477 8.96583
rtoes -16.7291
lfemur -13.51 -1.95169 -19.584
ltibia 24.5406
lfoot -10.329 -11.7393
ltoes -2.07298
1603
root 0.171217 17.7879 -5.25851 4.28317 34.1251 363.367
lowerback 11.7185 1.52004 -1.7978
upperback 1.22911 1.83877 0.657718
thorax -5.36106 0.957572 1.40473
lowerneck -17.3916 -1.69261 -11.3505
upperneck 38.8555 0.471214 4.48416
head 17.119 -0.662971 4.21197
rclavicle -3.13086e-014 -2.38542e-014
rhumerus -35.1261 -10.5092 -78.6622
rradius 38.8297
rwrist 10.9715
rhand -14.5602 10.6258
rfingers 7.12502
rthumb 11.5889 -19.0337
lclavicle -3.13086e-014 -2.38542e-014
lhumerus -27.0028 -1.44591 80.1968
lradius 39.3784
lwrist 3.83191
lhand -21.9532 24.1427
lfingers 7.12502
lthumb 4.454 54.0758
rfemur -12.1765 -11.0263 17.9069
rtibia 42.6543
rfoot -25.8451 9.60498
rtoes -17.3838
lfemur -13.8411 -1.81362 -19.9125
ltibia 24.771
lfoot -10.4654 -12.1096
ltoes -1.68282
1604
root 0.187325 17.7767 -5.31229 4.34971 34.1436 363.461
lowerback 11.6478 1.5983 -1.78493
upperback 1.21962 1.94233 0.606625
thorax -5.33357 1.0075 1.32858
lowerneck -17.3414 -1.72419 -11.522
upperneck 38.8345 0.46984 4.52113
head 17.0973 -0.681313 4.25755
rclavicle -4.02539e-014 2.38542e-015
rhumerus -35.1221 -10.4324 -78.7097
rradius 38.8711
rwrist 10.6788
rhand -14.4684 10.4146
rfingers 7.12502
rthumb 11.6774 -19.24
lclavicle -4.02539e-014 2.38542e-015
lhumerus -26.9219 -1.20644 80.0912
lradius 39.4809
lwrist 3.66973
lhand -22.0215 24.0171
lfingers 7.12502
lthumb 4.388 53.9516
rfemur -11.9584 -10.8566 18.4587
rtibia 42.5238
rfoot -25.7487 9.80178
rtoes -18.271
lfemur -14.1268 -1.68859 -20.1269
ltibia 25.0063
lfoot -10.6911 -12.3524
ltoes -1.91572
